<?xml version="1.0" encoding="UTF-8" standalone="no"?>
<!DOCTYPE svg PUBLIC "-//W3C//DTD SVG 1.1//EN" "http://www.w3.org/Graphics/SVG/1.1/DTD/svg11.dtd">
<svg width="100%" height="100%" viewBox="0 0 181 182" version="1.1" xmlns="http://www.w3.org/2000/svg" xmlns:xlink="http://www.w3.org/1999/xlink" xml:space="preserve" xmlns:serif="http://www.serif.com/" style="fill-rule:evenodd;clip-rule:evenodd;stroke-linecap:round;stroke-linejoin:bevel;stroke-miterlimit:2;">
    <style>
      path {
        fill: black;
      }
      @media (prefers-color-scheme: dark) {
        path {
          fill: white;
        }
      }
    </style>
    <g transform="matrix(1,0,0,1,-24140.2,-3492.21)">
        <g id="logomark_black-humm" transform="matrix(0.997593,0,0,0.997294,401.037,-694.92)">
            <rect x="23796.4" y="4198.49" width="181.306" height="182.193" style="fill:none;"/>
            <clipPath id="_clip1">
                <rect x="23796.4" y="4198.49" width="181.306" height="182.193"/>
            </clipPath>
            <g clip-path="url(#_clip1)">
                <g transform="matrix(1.00241,0,0,1.00271,-57.414,-11.3906)">
                    <g transform="matrix(0.68077,0,0,0.68077,25640,4638.14)">
                        <path d="M-2499.84,-391.86L-2519.3,-391.86C-2519.3,-391.86 -2527.09,-404.113 -2532.7,-411.81C-2529.68,-419.781 -2525.6,-428.225 -2525.6,-428.225L-2523.69,-428.548C-2519.7,-428.992 -2516.75,-429.742 -2512.87,-430.79L-2509.54,-431.69L-2516.47,-411.907L-2499.84,-391.86ZM-2546.69,-391.86L-2558.05,-411.66C-2558.05,-411.66 -2555.32,-417.594 -2550.17,-426.256L-2534.76,-427.241C-2536.14,-423.776 -2541.71,-411.66 -2541.71,-411.66L-2528.3,-391.86L-2546.69,-391.86ZM-2573.26,-391.86C-2573.26,-391.86 -2579.26,-403.804 -2583.08,-411.628C-2578.87,-419.3 -2573.58,-429.018 -2573.58,-429.018C-2573.58,-429.018 -2568.25,-427.296 -2559.78,-426.504C-2562.64,-421.039 -2567.2,-411.66 -2567.2,-411.66L-2555.57,-391.86L-2573.26,-391.86ZM-2443.21,-611.143C-2443.21,-615.528 -2451.92,-614.378 -2452.85,-611.212C-2453.22,-609.927 -2458.66,-566.368 -2462.2,-546.043C-2466.36,-522.056 -2470.05,-497.564 -2479.47,-474.96C-2480.58,-475.761 -2481.57,-476.009 -2482.51,-476.086C-2475.33,-508.164 -2461.28,-603.965 -2464.24,-613.617C-2465.14,-616.54 -2473.43,-616.296 -2473.91,-613.276C-2474.39,-610.207 -2475.42,-567.876 -2476.91,-550.035C-2479.08,-524.174 -2487.16,-478.195 -2488,-476.752C-2489.35,-474.45 -2492.21,-474.772 -2494.93,-467.594C-2495.88,-468.026 -2496.04,-469.684 -2506.19,-472.407C-2517.09,-475.331 -2525.13,-475.019 -2525.13,-475.019C-2525.13,-475.019 -2559.35,-544.149 -2585.62,-568.734C-2611.9,-593.318 -2655.56,-636.387 -2682.78,-622.527C-2685.3,-621.247 -2686.5,-617.577 -2685.51,-614.855C-2681.52,-603.879 -2633.05,-504.489 -2610.05,-492.489C-2593.75,-483.986 -2555.3,-492.449 -2537.85,-474.088C-2551.71,-473.098 -2575.86,-476.974 -2584.84,-464.467C-2586.86,-461.649 -2588.08,-458.341 -2588.55,-454.904C-2589.69,-446.625 -2588.58,-438.455 -2581.87,-432.623C-2584.28,-427.995 -2592.2,-411.66 -2592.2,-411.66L-2579.08,-385.177L-2472.94,-385.556L-2472.95,-391.86L-2490.75,-391.86C-2490.75,-391.86 -2500.63,-404.483 -2507.31,-411.907C-2505.01,-417.295 -2498.51,-433.876 -2498.15,-434.429C-2494.93,-439.38 -2493.7,-447.795 -2492.95,-455.219C-2487.76,-445.815 -2484.05,-442.88 -2479.59,-443.092C-2474.39,-443.339 -2473.02,-460.79 -2472.91,-463.881C-2472.66,-470.812 -2474.45,-472.38 -2473.9,-474.029C-2459.3,-517.341 -2443.21,-599.263 -2443.21,-611.143M-2553.42,-631.909C-2559.44,-640.75 -2569.4,-646.613 -2580.2,-644.739C-2582.6,-644.267 -2585.52,-643.326 -2585.52,-640.116C-2584.6,-626.637 -2581.82,-576.037 -2581.82,-576.037C-2581.82,-576.037 -2578.03,-572.146 -2571.16,-564.109C-2550.81,-540.283 -2526.63,-493.799 -2520.61,-483.519C-2512.08,-482.597 -2508.76,-482.093 -2501.73,-479.7C-2501.85,-527.088 -2523.85,-592.088 -2553.42,-631.909" style="fill-rule:nonzero;"/>
                    </g>
                    <g transform="matrix(0.670227,0,0,0.670227,18188.4,-7546.84)">
                        <path d="M8377.45,17755.8C8393.6,17762.5 8403.4,17770.2 8413.87,17785.9C8401.63,17787.6 8390.95,17787.4 8377.94,17787.4C8371.31,17787.1 8373.61,17795.5 8373.61,17795.5C8373.61,17795.5 8368.59,17794 8367.47,17787.4C8366.53,17781.4 8369.72,17769.2 8377.45,17755.8ZM8400.82,17727.5C8407.45,17731.5 8430.45,17747.3 8441.93,17778.3C8436.59,17780.7 8430.59,17782.6 8423.66,17784.2C8410.69,17758.4 8384.93,17744.6 8384.93,17744.6C8384.93,17744.6 8394.53,17732.9 8400.82,17727.5ZM8433.62,17708.1C8437.59,17711.6 8459.56,17731.7 8466.42,17761.5C8461.57,17766.2 8456.41,17770.4 8450.36,17774C8446.57,17759.5 8438.65,17747.1 8430.76,17737.8C8422.99,17728.6 8415.25,17722.2 8411.5,17719.3C8418.09,17714.9 8425.45,17711.1 8433.62,17708.1ZM8445.82,17704.6C8450.35,17709.8 8471.96,17735.9 8472.96,17754.6C8477.16,17750 8481.31,17745 8485.83,17739.7C8476.96,17730.1 8478.69,17710.1 8488.47,17703C8472.59,17700.9 8458.4,17701.7 8445.82,17704.6Z" style="fill-rule:nonzero;"/>
                        <path d="M8377.45,17755.8C8393.6,17762.5 8403.4,17770.2 8413.87,17785.9C8401.63,17787.6 8390.95,17787.4 8377.94,17787.4C8371.31,17787.1 8373.61,17795.5 8373.61,17795.5C8373.61,17795.5 8368.59,17794 8367.47,17787.4C8366.53,17781.4 8369.72,17769.2 8377.45,17755.8ZM8378.09,17757.7C8392.54,17763.9 8401.76,17771 8411.27,17784.7C8400.09,17786.1 8390.04,17785.9 8377.98,17786C8376.26,17785.9 8375.01,17786.3 8374.09,17786.9C8372.68,17787.9 8372.01,17789.5 8371.81,17791.1C8371.75,17791.6 8371.73,17792.1 8371.74,17792.6C8370.61,17791.5 8369.4,17789.8 8368.94,17787.1C8368.06,17781.5 8371.06,17770.2 8378.09,17757.7L8378.09,17757.7ZM8400.82,17727.5C8407.45,17731.5 8430.45,17747.3 8441.93,17778.3C8436.59,17780.7 8430.59,17782.6 8423.66,17784.2C8410.69,17758.4 8384.93,17744.6 8384.93,17744.6C8384.93,17744.6 8394.53,17732.9 8400.82,17727.5ZM8400.99,17729.3C8408.4,17734 8429.07,17749.1 8440.03,17777.5C8435.4,17779.5 8430.26,17781.1 8424.46,17782.5C8413.11,17760.8 8392.97,17747.6 8387.21,17744.2C8389.77,17741.1 8396.14,17733.7 8400.98,17729.3L8400.99,17729.3ZM8433.62,17708.1C8437.59,17711.6 8459.56,17731.7 8466.42,17761.5C8461.57,17766.2 8456.41,17770.4 8450.36,17774C8446.57,17759.5 8438.65,17747.1 8430.76,17737.8C8422.99,17728.6 8415.25,17722.2 8411.5,17719.3C8418.09,17714.9 8425.45,17711.1 8433.62,17708.1ZM8433.3,17709.8C8438.49,17714.5 8458.13,17733.5 8464.77,17761C8460.64,17764.9 8456.26,17768.5 8451.28,17771.7C8447.25,17757.8 8439.56,17745.9 8431.9,17736.8C8425.05,17728.7 8418.21,17722.7 8414.06,17719.4C8419.88,17715.7 8426.28,17712.4 8433.3,17709.8L8433.3,17709.8ZM8445.82,17704.6C8450.35,17709.8 8471.96,17735.9 8472.96,17754.6C8477.16,17750 8481.31,17745 8485.83,17739.7C8476.96,17730.1 8478.69,17710.1 8488.47,17703C8472.59,17700.9 8458.4,17701.7 8445.82,17704.6ZM8448.57,17705.5C8459.51,17703.3 8471.66,17702.6 8485.05,17704.1C8481.37,17708.1 8479.15,17714.1 8478.67,17720.3C8478.13,17727.3 8479.8,17734.6 8483.87,17739.7C8480.46,17743.7 8477.26,17747.5 8474.07,17751.1C8472.94,17744.3 8469.6,17736.7 8465.58,17729.7C8459.68,17719.3 8452.32,17710 8448.57,17705.5L8448.57,17705.5Z"/>
                    </g>
                </g>
            </g>
        </g>
    </g>
</svg>
